<?xml version="1.0" encoding="UTF-8" standalone="no"?>
<!-- Created with Inkscape (http://www.inkscape.org/) -->

<svg
   xmlns:dc="http://purl.org/dc/elements/1.1/"
   xmlns:cc="http://creativecommons.org/ns#"
   xmlns:rdf="http://www.w3.org/1999/02/22-rdf-syntax-ns#"
   xmlns:svg="http://www.w3.org/2000/svg"
   xmlns="http://www.w3.org/2000/svg"
   xmlns:sodipodi="http://sodipodi.sourceforge.net/DTD/sodipodi-0.dtd"
   xmlns:inkscape="http://www.inkscape.org/namespaces/inkscape"
   width="512px"
   height="512px"
   viewBox="0 0 512 512"
   version="1.1"
   id="SVGRoot"
   inkscape:version="0.92.4 (f8dce91, 2019-08-02)"
   sodipodi:docname="logo.svg">
  <defs
     id="defs950" />
  <sodipodi:namedview
     id="base"
     pagecolor="#ffffff"
     bordercolor="#666666"
     borderopacity="1.0"
     inkscape:pageopacity="0.0"
     inkscape:pageshadow="2"
     inkscape:zoom="1"
     inkscape:cx="56.5"
     inkscape:cy="254"
     inkscape:document-units="px"
     inkscape:current-layer="layer1"
     showgrid="false"
     inkscape:window-width="1920"
     inkscape:window-height="1043"
     inkscape:window-x="0"
     inkscape:window-y="0"
     inkscape:window-maximized="1" />
  <metadata
     id="metadata953">
    <rdf:RDF>
      <cc:Work
         rdf:about="">
        <dc:format>image/svg+xml</dc:format>
        <dc:type
           rdf:resource="http://purl.org/dc/dcmitype/StillImage" />
        <dc:title />
      </cc:Work>
    </rdf:RDF>
  </metadata>
  <g
     inkscape:label="Layer 1"
     inkscape:groupmode="layer"
     id="layer1">
    <path
       inkscape:connector-curvature="0"
       id="path2487"
       d="m 254.61535,412.45045 c -7.3388,-0.85934 -13.36013,-3.34974 -18.49598,-7.64986 -1.33882,-1.12107 -3.21672,-3.03595 -4.16184,-4.24421 -0.31247,-0.3994 -0.22371,-0.37337 1.26268,0.3696 4.31361,2.15602 10.26769,3.41949 15.03266,3.18982 3.36342,-0.1621 5.6592,-0.67418 6.3581,-1.41804 0.57192,-0.6089 0.34007,-1.01189 -1.35504,-2.35448 -4.99088,-3.95313 -8.26061,-8.5276 -10.12799,-14.16943 -2.23304,-6.74644 -1.92819,-14.06813 0.85557,-20.54696 0.76357,-1.77704 2.31848,-4.64658 3.33405,-6.15278 2.54719,-3.77769 6.67994,-7.70049 11.05822,-10.49653 2.08145,-1.32927 6.94123,-3.70619 9.58514,-4.68821 3.53884,-1.31429 7.52201,-2.25433 11.2969,-2.66599 2.49233,-0.27182 8.26437,-0.10892 10.44983,0.29494 5.76548,1.06535 10.38543,3.03867 14.72086,6.28755 1.4877,1.11494 4.30668,3.80976 5.24953,5.01847 l 0.51077,0.65482 -1.75995,-0.84628 c -4.55274,-2.18923 -10.0174,-3.34343 -14.78684,-3.12305 -5.65726,0.2613 -7.99325,1.44003 -6.01091,3.03297 2.45613,1.97376 3.53603,2.92633 4.60409,4.06142 4.61373,4.90333 7.27569,10.95455 7.85376,17.85284 0.36916,4.40561 -0.449,9.33619 -2.24172,13.50891 -2.5456,5.92521 -6.34126,10.74495 -11.57493,14.69754 -2.30498,1.74076 -4.07598,2.82907 -6.92739,4.25675 -4.9488,2.47795 -9.69213,4.03172 -14.79796,4.84759 -1.55736,0.24886 -8.52628,0.44716 -9.93161,0.2826 z m 18.80576,-23.56101 c 4.62722,-0.9807 8.38696,-4.74289 9.36871,-9.37467 0.28031,-1.32261 0.27961,-3.68937 0,-5.01601 -0.50262,-2.37175 -1.5111,-4.18664 -3.34579,-6.02125 -2.47988,-2.47988 -5.09611,-3.56231 -8.6246,-3.56844 -3.40091,-0.009 -6.52159,1.38071 -8.85128,3.93253 -2.12596,2.32881 -3.156,4.9948 -3.156,8.16893 0,3.42396 1.10794,6.07523 3.56574,8.53303 1.80762,1.80762 3.64266,2.83722 5.95167,3.3394 1.2675,0.27566 3.80767,0.27891 5.09313,0.009 z"
       style="display:inline;fill:#ffffff;fill-opacity:1;stroke-width:0.15518139" />
    <path
       inkscape:connector-curvature="0"
       id="path2487-3"
       d="m 190.17316,417.10723 c -30.07187,-3.52128 -54.7452,-13.72608 -75.79014,-31.34649 -5.48603,-4.59376 -13.18101,-12.44028 -17.053788,-17.39131 -1.28039,-1.6366 -0.91669,-1.52994 5.174028,1.5145 17.67568,8.83462 42.07345,14.01189 61.59865,13.07078 13.78214,-0.66423 23.18945,-2.76256 26.0533,-5.81064 2.34353,-2.49506 1.39349,-4.14638 -5.55248,-9.64785 -20.45091,-16.19856 -33.84913,-34.94316 -41.50101,-58.06143 -9.15023,-27.64459 -7.90106,-57.64635 3.50583,-84.19436 3.12884,-7.28169 9.50033,-19.04008 13.66178,-25.21197 10.43751,-15.47967 27.37209,-31.55395 45.31277,-43.01115 8.52907,-5.44689 28.44277,-15.18669 39.2766,-19.21067 14.50095,-5.38551 30.8226,-9.23747 46.2908,-10.92431 10.21271,-1.11382 33.86454,-0.44631 42.8198,1.20856 23.62495,4.36544 42.55591,12.45143 60.321,25.76421 6.09608,4.56864 17.64729,15.61109 21.51077,20.56396 l 2.09295,2.68323 -7.21166,-3.46776 c -18.65556,-8.97071 -41.04785,-13.70023 -60.59137,-12.79719 -23.1815,1.07072 -32.75358,5.90075 -24.63064,12.42807 10.06438,8.08779 14.48943,11.99109 18.86598,16.6423 18.90547,20.09215 29.81326,44.88796 32.18199,73.15478 1.51269,18.05267 -1.83984,38.25648 -9.18579,55.35485 -10.43099,24.27946 -25.9843,44.0291 -47.43007,60.22545 -9.44501,7.13303 -16.70196,11.59255 -28.38605,17.44269 -20.27848,10.15378 -39.71501,16.5206 -60.63694,19.86375 -6.38152,1.01974 -34.93775,1.83231 -40.69631,1.158 z m 77.05952,-96.54489 c 18.96075,-4.01857 34.36686,-19.43473 38.38974,-38.41417 1.14861,-5.41959 1.14574,-15.11776 0,-20.55387 -2.05957,-9.71862 -6.19197,-17.15541 -13.7099,-24.67301 -10.16169,-10.16169 -20.8821,-14.59712 -35.34063,-14.62223 -13.93576,-0.0369 -26.72323,5.65767 -36.26949,16.11415 -8.71145,9.54266 -12.9322,20.46696 -12.9322,33.47345 0,14.03021 4.53995,24.8942 14.61117,34.96542 7.407,7.407 14.92636,11.62594 24.38789,13.6837 5.19378,1.12956 15.60252,1.14288 20.86989,0.0369 z"
       style="display:inline;fill:#000000;fill-opacity:1;stroke:none;stroke-width:0.63587981" />
  </g>
</svg>
